# xmcd
#
# Track frame offsets:
# 150
# 7236
# 24228
# 43023
# 61131
# 79045
# 96113
# 115442
# 132166
# 153643
# 171628
# 187260
# 214599
#
# Disc length: 3117 seconds
#
# Revision: 2
# Processed by: cddbd v1.5.2PL0 Copyright (c) Steve Scherf et al.
# Submitted via: TinyPlayer 2.8
#
DISCID=b50c2b0d
DTITLE=Rihanna - Rated R
DYEAR=2009
DGENRE=R&B
TTITLE0=Rihanna - Mad House
TTITLE1=Rihanna - Wait Your Turn
TTITLE2=Rihanna featuring Young Jeezy - Hard
TTITLE3=Rihanna - Stupid in Love
TTITLE4=Rihanna featuring Slash - Rockstar 101
TTITLE5=Rihanna - Russian Roulette
TTITLE6=Rihanna - Fire Bomb
TTITLE7=Rihanna - Rude Boy
TTITLE8=Rihanna featuring will.i.am - Photographs
TTITLE9=Rihanna - G4L
TTITLE10=Rihanna - Te Amo
TTITLE11=Rihanna - Cold Case Love
TTITLE12=Rihanna - The Last Song
EXTD=UPC: 602527259901 - Catalogue #: 602527259901 - Label: Def Jam Recordings - ASIN: B002QB1910 - Release Date: 2009 11 23 - Discogs: m206209,r2033007 - MUSICBRAINZ_ALBUMID: fe495e05-7860-4e2e-9e64-ac020366b74c;
EXTT0=
EXTT1=
EXTT2=
EXTT3=
EXTT4=
EXTT5=
EXTT6=
EXTT7=
EXTT8=
EXTT9=
EXTT10=
EXTT11=
EXTT12=
PLAYORDER=
